<svg width="80" height="17" xmlns="http://www.w3.org/2000/svg"><path d="M71.82 1.196l-1.627 1.839 5.047 4.868c-1.435.037-2.882.075-4.294.1l-1.16.025c-.98.012-1.973.063-2.93.113-2.07.1-4.21.212-6.23 0-1.843-.2-4.45-.876-6.376-2.941-.095-.113-.203-.213-.299-.326-1.1-1.188-2.236-2.415-3.78-3.19h-.011A8.44 8.44 0 0 0 45.185.92a9.001 9.001 0 0 0-3.086 1.064c-1.686.963-3.014 2.315-4.282 3.641-1.208 1.24-2.344 2.415-3.731 3.216a7.23 7.23 0 0 1-2.332.864 8.062 8.062 0 0 1-2.452.062c-2.404-.313-4.605-1.601-7.128-4.167-.144-.137-.276-.288-.419-.438C19.758 3.11 17.497.782 14.364.17a9.483 9.483 0 0 0-3.756.038c-1.984.4-3.91 1.313-5.907 2.777C2.775 4.4 1.088 6.114 0 7.29l1.71 1.752c2.548-2.728 5.645-5.62 9.377-6.383a7.335 7.335 0 0 1 2.858-.037c2.404.476 4.318 2.427 6.148 4.317.143.15.287.288.43.438 1.974 2.002 4.724 4.38 8.504 4.868.442.062.885.088 1.327.088.61 0 1.232-.05 1.842-.163a9.68 9.68 0 0 0 3.062-1.139c1.674-.963 2.99-2.315 4.257-3.629 1.209-1.251 2.357-2.427 3.756-3.229a6.475 6.475 0 0 1 2.284-.788 6.149 6.149 0 0 1 3.624.563c1.16.589 2.105 1.602 3.086 2.666.107.112.203.225.31.337 2.429 2.603 5.598 3.442 7.834 3.68 2.202.237 4.438.125 6.59.012.945-.05 1.914-.1 2.86-.113l1.16-.025c1.339-.025 2.726-.05 4.101-.087l-4.856 4.755L71.904 17 80 9.079l-8.18-7.883z" fill="#000" fill-rule="nonzero"/></svg>
